<svg width="58" height="58" viewBox="0 0 58 58" fill="none" xmlns="http://www.w3.org/2000/svg">
<circle cx="29" cy="29" r="29" fill="#D613F0"/>
<path d="M38.5509 24.428C38.5509 24.7839 38.4095 25.1252 38.1578 25.3769C37.9061 25.6286 37.5648 25.77 37.2089 25.77C36.8529 25.77 36.5116 25.6286 36.2599 25.3769C36.0082 25.1252 35.8668 24.7839 35.8668 24.428C35.8668 24.072 36.0082 23.7307 36.2599 23.479C36.5116 23.2273 36.8529 23.0859 37.2089 23.0859C37.5648 23.0859 37.9061 23.2273 38.1578 23.479C38.4095 23.7307 38.5509 24.072 38.5509 24.428ZM34.5248 28.454C34.8807 28.454 35.2221 28.3126 35.4738 28.0609C35.7254 27.8093 35.8668 27.4679 35.8668 27.112C35.8668 26.7561 35.7254 26.4147 35.4738 26.163C35.2221 25.9114 34.8807 25.77 34.5248 25.77C34.1689 25.77 33.8275 25.9114 33.5759 26.163C33.3242 26.4147 33.1828 26.7561 33.1828 27.112C33.1828 27.4679 33.3242 27.8093 33.5759 28.0609C33.8275 28.3126 34.1689 28.454 34.5248 28.454ZM41.2349 27.112C41.2349 27.4679 41.0935 27.8093 40.8419 28.0609C40.5902 28.3126 40.2488 28.454 39.8929 28.454C39.537 28.454 39.1956 28.3126 38.9439 28.0609C38.6923 27.8093 38.5509 27.4679 38.5509 27.112C38.5509 26.7561 38.6923 26.4147 38.9439 26.163C39.1956 25.9114 39.537 25.77 39.8929 25.77C40.2488 25.77 40.5902 25.9114 40.8419 26.163C41.0935 26.4147 41.2349 26.7561 41.2349 27.112ZM37.2089 31.1381C37.5648 31.1381 37.9061 30.9967 38.1578 30.745C38.4095 30.4933 38.5509 30.152 38.5509 29.796C38.5509 29.4401 38.4095 29.0988 38.1578 28.8471C37.9061 28.5954 37.5648 28.454 37.2089 28.454C36.8529 28.454 36.5116 28.5954 36.2599 28.8471C36.0082 29.0988 35.8668 29.4401 35.8668 29.796C35.8668 30.152 36.0082 30.4933 36.2599 30.745C36.5116 30.9967 36.8529 31.1381 37.2089 31.1381ZM19.7626 23.0859H22.4466V25.77H25.1307V28.454H22.4466V31.1381H19.7626V28.454H17.0786V25.77H19.7626V23.0859Z" fill="black"/>
<path d="M15.8735 17.0012C15.8277 16.8308 15.8159 16.653 15.8389 16.478C15.8618 16.303 15.9191 16.1343 16.0073 15.9815C16.0956 15.8286 16.2131 15.6947 16.3532 15.5874C16.4933 15.48 16.6531 15.4014 16.8237 15.3559L22.0092 13.9656C22.1875 13.9181 22.3737 13.9078 22.5561 13.9355C22.7385 13.9631 22.9132 14.0281 23.0694 14.1264C23.2255 14.2246 23.3598 14.354 23.4637 14.5064C23.5676 14.6588 23.639 14.8311 23.6733 15.0123C25.4314 14.8003 27.2968 14.6983 29.1568 14.6983C31.0893 14.6983 33.0299 14.8083 34.847 15.0365C34.8784 14.8525 34.9478 14.677 35.0508 14.5214C35.1538 14.3657 35.2882 14.2333 35.4453 14.1325C35.6024 14.0317 35.7789 13.9648 35.9633 13.936C36.1477 13.9073 36.3361 13.9174 36.5165 13.9656L41.702 15.3559C41.8999 15.4089 42.083 15.5064 42.2374 15.6411C42.3917 15.7758 42.5132 15.944 42.5924 16.1329C42.6717 16.3217 42.7067 16.5262 42.6947 16.7307C42.6828 16.9352 42.6241 17.1342 42.5234 17.3126C42.8991 17.5541 43.2373 17.8225 43.5245 18.1097C44.6196 19.2048 45.6181 20.928 46.4635 22.8658C47.3224 24.8332 48.0713 27.1361 48.6242 29.4847C49.1771 31.8332 49.5368 34.2623 49.6012 36.4793C49.6656 38.6695 49.4428 40.7791 48.7208 42.411C48.3915 43.1437 47.8392 43.7536 47.1427 44.1536C46.4462 44.5537 45.6411 44.7235 44.8424 44.6388C43.1353 44.4589 41.8497 43.5813 40.7814 42.564C40.1238 41.9413 39.4501 41.1522 38.7979 40.3953C38.4597 39.9981 38.1269 39.6116 37.8102 39.26C35.8562 37.102 33.5238 35.1614 29.1568 35.1614C24.7899 35.1614 22.4575 37.102 20.5035 39.26C20.1841 39.6116 19.854 39.9981 19.5158 40.3953C18.8635 41.1522 18.1898 41.9386 17.5323 42.564C16.464 43.5839 15.1784 44.4589 13.4713 44.6388C12.6726 44.7235 11.8675 44.5537 11.1709 44.1536C10.4744 43.7536 9.92212 43.1437 9.59287 42.411C8.86818 40.7791 8.64808 38.6668 8.70982 36.4793C8.77423 34.2623 9.13926 31.8359 9.68949 29.4847C10.2424 27.1361 10.9939 24.8332 11.8501 22.8658C12.6956 20.928 13.6941 19.2048 14.7865 18.1097C15.1374 17.7656 15.5274 17.4638 15.9487 17.2106C15.9178 17.1421 15.8926 17.0739 15.8735 17.0012ZM21.3382 18.107C18.9843 18.6036 17.3954 19.2961 16.6868 20.0073C15.946 20.7481 15.1113 22.1089 14.3114 23.9395C13.4629 25.9299 12.7911 27.9911 12.3037 30.0993C11.7889 32.2168 11.4842 34.3799 11.3939 36.5571C11.3348 38.5836 11.5603 40.2289 12.0461 41.324C12.1456 41.5373 12.3093 41.7141 12.5144 41.8296C12.7194 41.9451 12.9555 41.9936 13.1895 41.9682C14.0672 41.8769 14.8267 41.434 15.683 40.6208C16.252 40.0786 16.7566 39.4854 17.3336 38.8117C17.6906 38.393 18.0744 37.9448 18.5146 37.459C20.7316 35.0084 23.7297 32.4801 29.1568 32.4801C34.584 32.4801 37.582 35.0084 39.7991 37.459C40.2392 37.9448 40.6231 38.393 40.98 38.8117C41.5544 39.4854 42.0617 40.0786 42.6307 40.6208C43.4842 41.434 44.2438 41.8769 45.1242 41.9708C45.3585 41.996 45.5948 41.9472 45.7999 41.8312C46.0049 41.7152 46.1685 41.5378 46.2676 41.324C46.7507 40.2289 46.9789 38.5863 46.9198 36.5571C46.8295 34.3799 46.5247 32.2168 46.0099 30.0993C45.5225 27.9912 44.8507 25.9299 44.0023 23.9395C43.2024 22.1089 42.365 20.7454 41.6269 20.0073C40.9183 19.2961 39.3294 18.6036 36.9754 18.107C34.694 17.6266 31.9375 17.3823 29.1568 17.3823C26.3762 17.3823 23.6197 17.6266 21.3382 18.107Z" fill="black"/>
</svg>
